<?xml version="1.0" standalone="no"?>
<!DOCTYPE svg PUBLIC "-//W3C//DTD SVG 20010904//EN"
 "http://www.w3.org/TR/2001/REC-SVG-20010904/DTD/svg10.dtd">
<svg version="1.0" xmlns="http://www.w3.org/2000/svg"
 width="256.000000pt" height="256.000000pt" viewBox="0 0 256.000000 256.000000"
 preserveAspectRatio="xMidYMid meet">
<metadata>
Created by potrace 1.14, written by Peter Selinger 2001-2017
</metadata>
<g transform="translate(0.000000,256.000000) scale(0.100000,-0.100000)"
fill="#000000" stroke="none">
<path d="M418 2384 c-227 -54 -405 -282 -391 -498 6 -89 43 -188 99 -263 29
-39 29 -41 2 -97 -25 -53 -15 -76 33 -76 27 0 40 -14 21 -22 -4 -1 -24 -24
-44 -49 -43 -52 -94 -156 -113 -228 -15 -57 -10 -65 45 -76 58 -11 100 -26
100 -36 0 -4 -13 -15 -28 -23 -16 -8 -43 -28 -60 -44 l-32 -30 26 -63 c48
-119 210 -336 355 -475 161 -154 411 -281 646 -329 45 -9 94 -17 110 -19 15
-1 33 -4 38 -7 29 -16 240 0 375 28 208 42 488 248 652 478 128 181 248 407
248 468 0 18 -14 33 -55 61 -31 20 -53 41 -50 46 3 5 31 12 63 16 83 10 93 17
86 62 -8 55 -37 111 -83 162 -47 53 -53 75 -16 68 14 -3 32 0 42 7 15 11 13
18 -21 80 l-37 67 36 52 c38 55 71 134 82 194 12 64 6 185 -10 242 -62 212
-326 359 -547 303 -74 -18 -170 -67 -211 -107 l-33 -33 -85 23 c-95 25 -124
31 -191 41 -64 8 -81 19 -78 50 4 39 -21 37 -120 -12 -48 -23 -112 -48 -142
-55 -91 -21 -217 -58 -237 -68 -15 -9 -25 -3 -56 29 -115 119 -272 169 -419
133z"/>
</g>
</svg>
